<svg width="1846" height="638" viewBox="0 0 1846 638" fill="none" xmlns="http://www.w3.org/2000/svg">
<g clip-path="url(#clip0_4225_309120)">
<path d="M0 0H1846V638H0V0Z" fill="white"/>
<path d="M44.1466 47.7148C69.9639 48.4503 97.8639 47.9333 123.789 47.8421L238.629 47.7338L577.643 47.7512L577.764 580.366L217.962 580.628L109.725 580.521C89.0901 580.472 64.3769 579.8 44.1328 580.963C44.8864 557.71 44.4141 531.83 44.4252 508.418L44.4637 379.887L44.1466 47.7148Z" fill="#045E8F"/>
<path d="M298.071 225.484C320.284 225.843 342.906 224.52 364.896 226.066C374.835 226.766 383.614 236.394 382.759 246.501C381.493 261.447 371.343 266.071 358.083 265.758C343.198 265.408 328.458 265.284 313.706 265.557C314.24 288.749 313.859 314.324 313.707 337.557C325.524 326.678 354.61 292.171 367.214 288.342C374.448 286.145 380.098 288.628 386.396 291.947C386.951 274.464 385.892 256.728 386.712 239.448C390.675 232.261 397.912 225.188 406.39 225.712C427.159 226.998 460.226 222.651 479.745 226.756C482.442 227.306 484.94 228.57 486.98 230.417C499.81 241.815 492.196 264.181 479.41 264.989C463.141 266.016 440.987 264.945 424.318 265.635C424.779 289.399 424.558 314.146 424.696 338.011C431.462 330.408 440.17 321.986 447.406 314.644C455.466 306.391 470.334 287.446 482.68 287.573C498.794 287.738 501.445 297.102 501.692 311.065C494.94 323.423 429.876 386.318 416.389 400.668C414.689 402.477 409.836 404.124 407.264 404.953C384.094 398.534 387.216 384.644 387.323 365.001L387.592 318.467C369.64 336.48 351.819 354.623 334.131 372.895C325.273 381.994 317.017 390.75 307.411 399.835C299.352 410.747 279.527 399.347 278.728 389.232C276.975 367.013 277.672 335.006 277.626 313.145L277.548 268.766C277.539 262.296 277.201 250.8 277.802 244.665C278.149 241.428 279.239 238.314 280.989 235.569C285.257 228.784 290.906 227.031 298.071 225.484Z" fill="white"/>
<path d="M175.201 225.698L220.767 225.417C269.606 225.084 266.524 229.352 266.44 275.859L266.297 331.35C266.249 348.46 266.254 365.506 266.087 382.661C265.974 394.303 258.293 406.798 244.911 403.599C236.84 401.67 233.028 396.249 228.803 389.638C227.438 375.463 228.814 339.365 228.986 323.712C226.486 325.737 222.954 329.266 220.519 331.568C204.887 346.415 159.61 397.898 144.606 405.267C136.719 403.29 123.907 397.401 123.713 387.802C122.992 352.184 123.298 316.185 123.451 280.547C123.504 268.536 134.805 259.376 142.974 251.241C151.05 243.197 164.003 227.703 175.201 225.698Z" fill="white"/>
<path d="M210.419 265.363L229.022 265.533L228.799 298.712C206.012 280.855 190.028 306.796 175.01 322.387L161.242 335.984C161.627 320.442 161.329 303.675 161.331 288.041L182.733 265.711L210.419 265.363Z" fill="#045E8F"/>
<path d="M917.979 257.458L934.771 257.886L930.084 275.955C925.695 292.338 920.98 308.632 915.951 324.829L899.819 324.972C895.081 311.767 892.588 296.09 887.552 282.017C882.599 293.959 878.844 310.852 873.388 325.03C868.276 324.981 863.038 325.067 857.914 325.091C853.79 307.471 843.909 276.025 838.488 258.138L855.822 257.648C859.647 272.773 863.364 288.102 867.831 303.038C871.76 289.613 875.445 272.556 879.1 258.58L893.787 258.61C897.126 271.489 903.151 287.914 907.054 302.033C909.921 294.662 915.762 266.717 917.979 257.458Z" fill="#045E8F"/>
<path d="M1444 144.521C1448.7 144.987 1456.8 144.845 1461.75 144.909C1460.67 164.747 1462.04 191.742 1461.95 212.654L1444.86 212.644L1444.91 193.156L1445.41 171.227C1440.06 180.532 1437.31 189.566 1430.9 198.529C1427.21 198.888 1422.21 198.92 1418.4 199.049C1414.67 190.52 1410.41 179.074 1405.48 171.533C1404.84 183.677 1405.19 200.251 1405.11 212.704L1388.29 212.642C1388.25 197.543 1387.14 158.984 1388.63 145.715C1390.83 144.249 1394.2 144.612 1396.95 144.614L1405.6 144.606C1413.2 156.969 1417.47 170.001 1426.23 181.737C1432.16 169.473 1437.77 156.534 1444 144.521Z" fill="#045E8F"/>
<path d="M703.957 144.412L721.396 144.531L721.586 170.63C730.716 171.145 739.717 171.059 748.858 171.053C749.11 162.602 748.915 153.225 748.919 144.702L766.998 144.97C765.1 164.587 768.487 195.914 765.979 212.611L748.753 212.632C748.999 203.115 748.876 194.174 748.688 184.651L721.774 185.129L721.763 212.602L704.07 212.597C704.148 189.869 704.11 167.14 703.957 144.412Z" fill="#045E8F"/>
<path d="M1293.71 144.449L1311.3 144.593C1310.47 167.739 1311.48 189.835 1310.93 212.607L1294.12 212.697C1294.19 203.621 1293.81 193.902 1293.61 184.778L1267.03 184.801C1266.59 193.539 1266.58 202.736 1266.46 211.525C1264.47 213.309 1252.58 212.667 1249.16 212.659C1249.46 190.879 1249.58 166.46 1248.95 144.807L1266.98 144.924C1266.43 153.314 1266.52 162.319 1266.47 170.782C1274.96 171.21 1284.93 171.073 1293.53 171.161C1293.99 162.421 1293.77 153.241 1293.71 144.449Z" fill="#045E8F"/>
<path d="M749.077 257.811L766.44 257.952C765.917 279.713 766.357 302.819 766.282 324.755L756.924 324.801C754.609 324.987 751.985 325.539 750.202 324.198C747.437 319.688 748.785 305.074 748.315 297.347C739.374 297.701 730.429 297.913 721.481 297.98L721.614 324.675C715.901 324.6 709.883 324.858 704.149 325.015C704.694 303.25 703.8 281.339 704.263 259.561C705.832 258.069 707.986 258.393 710.56 258.171L721.29 257.828L721.487 283.827L748.993 283.96L749.077 257.811Z" fill="#045E8F"/>
<path d="M884.891 144.497L905.154 144.847C895.686 155.529 886.215 166.733 876.839 177.541C879.791 180 890.912 192.683 894.102 196.171C899.502 202.322 902.432 205.953 907.047 212.701C899.494 212.654 893.617 212.687 886.068 213.257C878.067 204.741 870.736 192.015 861.779 184.415C861.714 194.129 861.633 202.99 860.978 212.671L843.684 212.696C844.063 190.279 843.768 166.956 843.779 144.449C849.042 144.963 855.928 144.817 861.335 144.85C860.966 154.22 861.057 163.604 861.607 172.965C869.371 164.435 877.743 153.579 884.891 144.497Z" fill="#045E8F"/>
<path d="M1037.13 164.883C1065.7 166.851 1071.91 198.666 1048.8 213.51C1038.81 214.014 1037.9 214.022 1029.27 209.03L1028.87 226.86C1028.91 229.349 1029.26 231.38 1027.68 233.256C1024.32 234.92 1017.56 234.125 1013.08 234.168L1013.25 165.677C1022.04 165.462 1022.33 164.561 1028.89 169.297C1031.87 169.564 1034.18 166.999 1037.13 164.883Z" fill="#045E8F"/>
<path d="M1031.78 180.25C1046.44 178.605 1051.54 187.894 1042.58 199.202C1028.2 201.112 1025.11 191.206 1031.78 180.25Z" fill="white"/>
<path d="M726.512 410.967C729.131 410.794 731.761 410.984 734.328 411.53C752.726 415.602 755.691 445.233 739.931 454.229C732.369 458.545 725.388 456.241 717.724 454.054L717.519 471.516C717.606 473.408 717.748 474.027 716.755 475.716C713.309 477.441 706.41 476.778 702.184 476.741L702.23 411.745C707.983 411.604 712.081 410.744 716.565 414.234L717.03 414.602C719.89 414.885 723.327 412.483 726.512 410.967Z" fill="#71C3ED"/>
<path d="M723.583 425.374L724.008 425.347C738.134 424.579 738.307 436.722 729.84 445.235C717.503 445.052 714.297 433.36 723.583 425.374Z" fill="white"/>
<path d="M1503.05 165.13C1507.39 165.644 1513.36 165.639 1517.87 165.759C1517.72 181.419 1517.75 197.081 1517.95 212.741C1514.5 212.754 1506.64 213.51 1504.12 212.07C1502.61 211.204 1502.34 209.343 1500.38 208.816C1492.7 213.712 1493.5 213.865 1484.26 213.506C1463.84 208.284 1463.66 173.908 1482.13 165.997C1490.14 162.561 1494.22 167.457 1500.76 170.269C1502.71 168.678 1502.27 168.148 1503.05 165.13Z" fill="#045E8F"/>
<path d="M1492.64 179.358C1494.14 179.328 1496.09 179.493 1497.63 179.575C1506.14 183.814 1505.18 196.955 1495.02 200.902C1482.89 196.17 1480.93 186.283 1492.64 179.358Z" fill="white"/>
<path d="M1106.22 278.532C1108.2 278.408 1112.79 278.138 1114.51 278.641C1118.24 279.735 1121.17 283.35 1125.27 282.662L1126.26 279.473C1128.19 278.587 1137.63 279.141 1140.37 279.215C1140.22 294.548 1141.07 309.751 1140.77 325.06L1126.71 325.16C1123.77 320.578 1120.96 323.702 1116.21 325.003C1089.23 332.401 1080.96 287.241 1106.22 278.532Z" fill="#045E8F"/>
<path d="M1115.07 292.756C1128.74 291.934 1129.97 307.497 1119.44 313.209C1106.35 312.316 1102.22 300.094 1115.07 292.756Z" fill="white"/>
<path d="M1590.95 165.137C1598.46 165.122 1599.18 166.234 1605.78 169.588C1609.98 169.325 1607.3 167.396 1609.91 165.479C1610.69 164.906 1622.14 165.643 1623.26 165.702L1623.64 212.768L1608.99 212.737C1608.04 209.86 1608.65 210.222 1606.56 208.819C1604.19 210.051 1602.48 211.765 1600.51 213.547C1598.63 213.592 1596.74 213.58 1594.88 213.601C1573.97 213.847 1568.73 182.872 1581.67 170.4C1584.92 167.266 1586.87 166.485 1590.95 165.137Z" fill="#045E8F"/>
<path d="M1599.17 179.166C1610.62 179.278 1613.54 194.582 1601.43 200.685C1588.8 198.95 1586.69 185.551 1599.17 179.166Z" fill="white"/>
<path d="M1641.93 165.157C1643.84 165.069 1648.66 164.872 1650.33 165.417C1653.56 166.476 1658.24 170.348 1661.69 169.568L1662.64 166.295C1665.38 165.145 1673.14 165.711 1676.52 165.801L1676.51 212.764C1672.14 212.829 1668.03 213.01 1663.7 212.443L1661.6 208.839L1660.07 208.439C1659.11 209.167 1658.15 209.863 1657.16 210.528C1633.47 226.259 1612.65 182.868 1641.93 165.157Z" fill="#045E8F"/>
<path d="M1649.74 179.362C1663.81 179.618 1665.82 192.192 1656.4 200.456C1642.62 198.893 1640.96 188.699 1649.74 179.362Z" fill="white"/>
<path d="M1080.31 165.175C1083.89 165.296 1088.18 165.721 1091.81 165.982C1093.76 167.828 1094.52 168.801 1097.07 169.52C1104.36 164.904 1105.07 165.163 1114.04 165.679L1113.9 212.726C1109.85 212.843 1105.64 213.192 1101.72 212.281L1101.22 210.59C1098.77 207.559 1097.77 209.26 1095.1 210.633C1090.84 212.818 1082.53 214.618 1078.04 212.724C1065.42 207.405 1063.28 188.468 1067.68 177.069C1070.28 170.271 1074.33 167.792 1080.31 165.175Z" fill="#045E8F"/>
<path d="M1088.08 179.188C1102.02 179 1102.65 192.056 1094.5 200.56C1090.98 200.385 1087.84 199.821 1085.2 197.328C1083.22 195.488 1082.12 192.892 1082.17 190.189C1082.25 184.898 1084.57 182.496 1088.08 179.188Z" fill="white"/>
<path d="M1249.29 278.587C1263.2 277.564 1258.44 281.003 1268.47 282.853C1273.2 277.472 1277.02 279.001 1283.72 279.329C1283.39 294.441 1283.34 309.558 1283.54 324.672C1279.14 324.905 1275.96 324.969 1271.57 324.797C1266.73 320.338 1266.73 323.2 1261.08 324.872C1233.34 333.104 1223.15 290.02 1249.29 278.587Z" fill="#045E8F"/>
<path d="M1256.4 292.739C1270.96 292.226 1272.78 303.633 1263.98 312.843C1250.14 313.183 1245.9 299.981 1256.4 292.739Z" fill="white"/>
<path d="M1004.73 278.701C1017.78 278.2 1017.01 283.018 1022.53 282.79L1023.75 279.588C1025.84 278.419 1034.66 278.947 1037.61 278.994L1037.56 325.259C1031.61 325.468 1027.08 326.451 1022.65 323.043C1022.52 322.601 1022.02 321.923 1021.75 321.499C989.141 340.936 974.124 288.163 1004.73 278.701Z" fill="#045E8F"/>
<path d="M1011.5 291.909L1012.05 291.903C1025.44 291.851 1026.09 304.959 1016.23 313.488C1004.18 313.918 1000.56 300.407 1011.5 291.909Z" fill="white"/>
<path d="M918.547 165.907C921.017 165.675 924.794 165.28 927.209 165.594C930.644 166.038 936.151 170.39 939.261 169.386L940.288 166.19C942.902 165.193 950.357 165.713 953.583 165.804C953.484 181.403 953.655 197.004 954.088 212.599L941.289 212.708C940.64 210.647 940.532 209.983 939.116 208.316C935.962 208.507 934.33 211.018 931.464 213.602L919.629 213.282C915.392 210.504 912.815 208.745 909.984 204.469C905.748 198.02 904.27 190.151 905.865 182.607C907.668 174.092 911.67 170.427 918.547 165.907Z" fill="#045E8F"/>
<path d="M925.64 180.08C939.612 178.905 944.876 189.758 935.709 198.851C921.188 202.813 919.502 190.511 925.64 180.08Z" fill="white"/>
<path d="M1685.56 140.866L1701.74 140.777C1701.53 154.883 1701.47 168.991 1701.57 183.097C1706.31 177.784 1711.71 170.834 1716.3 165.241C1721.67 165.706 1728.69 165.58 1734.19 165.633C1729.25 169.969 1720.46 181.467 1714.98 187.359C1720.36 192.718 1724.01 196.173 1728.47 202.389C1730.97 205.8 1734.14 209.402 1736.91 212.671L1717.5 212.99C1712.35 206.051 1707.11 199.179 1701.78 192.376L1701.54 212.852L1685.51 212.809L1685.56 140.866Z" fill="#045E8F"/>
<path d="M1247.36 410.995C1259.27 410.157 1254.69 412.366 1263.82 415.929C1264.91 414.335 1265.67 412.977 1266.61 411.308C1269.3 410.582 1276.72 411.039 1279.9 411.136C1279.65 425.989 1279.59 440.845 1279.69 455.699L1266.61 455.543C1263.21 450.207 1254.43 458.904 1244.29 455.454C1240.22 454.079 1236.87 451.126 1235 447.26C1228.71 434.526 1234.06 417.234 1247.36 410.995Z" fill="#71C3ED"/>
<path d="M1251.89 425.344C1265.06 424.777 1269.75 433.811 1262.52 444.374C1248.92 445.133 1244.43 436.523 1251.89 425.344Z" fill="white"/>
<path d="M940.182 254.045L954.739 254.131C954.513 263.664 954.495 273.201 954.685 282.736C988.134 263.953 983.312 305.868 983.348 325.056L968.007 325.136L967.962 310.783C967.989 304.588 969.44 296.014 963.482 292.812C961.481 292.879 959.543 292.657 958.092 294.506C953.882 299.864 955.595 317.894 955.739 324.568C950.664 324.612 945.103 324.928 939.992 325.113C940.416 301.755 940.046 277.512 940.182 254.045Z" fill="#045E8F"/>
<path d="M1165.1 278.768C1178.25 275.04 1191.92 282.73 1195.56 295.902C1199.2 309.073 1191.41 322.687 1178.21 326.234C1165.14 329.746 1151.68 322.054 1148.08 309.01C1144.47 295.966 1152.08 282.459 1165.1 278.768Z" fill="#045E8F"/>
<path d="M1167.25 292.929C1181.22 291.018 1184.75 302.092 1176.59 312.234C1163.17 315.247 1158.98 301.149 1167.25 292.929Z" fill="white"/>
<path d="M1045.86 253.891L1061.58 254.074C1061.17 269.02 1060.88 282.019 1061.21 296.99C1064.45 293.503 1071.71 283.372 1074.9 279.152L1092.86 279.546C1088.18 284.045 1080.77 294.243 1075.36 300.148C1078.3 304.388 1085.7 311.706 1089.67 316.75L1095.4 325.151L1077.1 325.067C1072.91 320.444 1065.59 309.914 1061.61 304.523C1061.09 310.93 1061.3 318.685 1061.31 325.209L1046.07 325.274C1046.13 301.479 1046.06 277.685 1045.86 253.891Z" fill="#045E8F"/>
<path d="M1064.3 411.38C1076.82 407.368 1090.21 414.29 1094.18 426.819C1098.15 439.349 1091.17 452.714 1078.62 456.631C1066.15 460.525 1052.86 453.598 1048.92 441.136C1044.97 428.674 1051.85 415.37 1064.3 411.38Z" fill="#71C3ED"/>
<path d="M1068.3 425.331C1069.59 425.273 1070.89 425.256 1072.18 425.28C1081.81 425.519 1083.89 437.105 1075.99 444.252C1062.44 444.501 1059.38 434.41 1068.3 425.331Z" fill="white"/>
<path d="M1556.16 411.368C1568.49 407.278 1581.81 413.863 1586.05 426.138C1590.28 438.412 1583.85 451.809 1571.63 456.187C1563.59 459.064 1554.62 457.4 1548.15 451.829C1541.68 446.257 1538.71 437.64 1540.37 429.267C1542.02 420.893 1548.05 414.057 1556.16 411.368Z" fill="#71C3ED"/>
<path d="M1559.96 425.225C1573.19 424.755 1577.19 435.547 1568.85 444.279C1555.51 444.718 1551.31 434.76 1559.96 425.225Z" fill="white"/>
<path d="M1177.48 164.293C1197.06 164.555 1201.74 175.662 1203.13 192.702C1197.32 193.043 1175.59 192.438 1172.62 194.697L1172.54 196.233C1179.61 205.938 1193.94 195.803 1202.49 200.627C1199.6 217.713 1175.22 216.639 1164.87 208.854C1159.77 205.063 1156.42 199.374 1155.58 193.08C1153.51 178.111 1162.47 166.275 1177.48 164.293Z" fill="#045E8F"/>
<path d="M1175.16 176.385C1179.69 176.33 1186.4 177.783 1187.19 182.982L1185.42 183.986C1181.23 184.238 1174.39 185.538 1171.59 182.148C1172.38 178.651 1172.55 179.292 1175.16 176.385Z" fill="white"/>
<path d="M1340.79 164.336C1352.36 164.294 1360.98 171.101 1365.56 181.541C1374.11 200.988 1338.17 188.652 1335.15 195.914C1340.26 206.841 1358.4 195.351 1365.83 201.893L1366.28 202.299C1358.37 215.527 1338.56 217.877 1327.09 208.62C1310.15 194.938 1317.04 167.104 1340.79 164.336Z" fill="#045E8F"/>
<path d="M1339.29 176.515C1343.53 176.662 1347.71 177.365 1349.4 181.933L1348.79 183.216L1345.97 183.931C1341.97 184.124 1336.09 185.306 1334.26 181.221C1335.22 178.744 1337 177.965 1339.29 176.515Z" fill="white"/>
<path d="M796.402 164.303C815.447 163.494 820.818 176.707 821.8 192.773C816.739 193.004 793.284 193.146 790.636 194.662L790.577 195.907C800.077 206.32 813.657 196.067 821.013 201.387C821.192 210.137 812.453 211.885 805.381 213.434C770.686 221.035 761.421 169.373 796.402 164.303Z" fill="#045E8F"/>
<path d="M794.436 176.686C799.67 176.482 804.053 176.574 806.322 181.908C805.611 183.106 804.562 183.271 803.19 183.778C799.119 183.868 792.046 184.996 790.137 180.982C790.815 178.805 792.524 177.983 794.436 176.686Z" fill="white"/>
<path d="M794.424 277.839C813.938 276.405 820.347 287.646 821.919 305.061C815.047 305.787 795.085 303.83 791.468 308.346L792.27 310.141C800.138 317.201 809.733 311.56 819.82 312.256L820.129 312.279C820.234 315.454 820.566 317.817 819.185 320.711C816.704 323.225 809.943 325.218 806.21 326.045C782.408 331.314 766.335 307.783 778.552 287.283C781.962 281.562 787.898 279.05 794.424 277.839Z" fill="#045E8F"/>
<path d="M791.096 290.16C796.412 289.735 801.961 289.122 805.886 293.158C805.875 295.854 806.084 294.883 804.659 297.198C800.649 297.341 792.519 298.338 789.632 295.812C789.057 292.789 789.364 293.505 791.096 290.16Z" fill="white"/>
<path d="M1549.99 164.946C1551.79 164.824 1553.58 164.756 1555.37 164.745C1575.73 164.612 1570.65 198.513 1570.44 212.646L1554.7 212.582C1554.47 204.228 1557.55 185.551 1550.76 180.673C1547.63 179.647 1545.88 180.317 1542.72 181.068C1541.15 189.116 1541.65 203.945 1541.74 212.741L1525.98 212.648L1525.95 165.614C1534.23 165.439 1536.73 164.141 1543.26 169.733C1545.92 169.672 1547.53 167.224 1549.99 164.946Z" fill="#045E8F"/>
<path d="M989.483 165.731L1005.91 166.058L1005.9 181.332C1005.98 189.658 1007.56 201.545 1001.32 207.879C993.431 216.221 975.458 216.059 967.535 207.871C959.404 199.469 961.46 177.361 961.469 165.906L978.504 166.157C978.36 173.843 975.53 196.546 984.075 199.292C988.915 198.266 989.564 195.961 989.699 191.239C989.952 182.766 989.654 174.21 989.483 165.731Z" fill="#045E8F"/>
<path d="M1462.96 411.055C1484.17 409.368 1492.22 416.438 1492.29 437.95C1485.79 438.156 1469.11 437.08 1464.23 438.744C1463.9 441.351 1463.69 440.309 1465.1 442.66C1470.21 446.126 1481.91 444.776 1488.41 444.548C1491.4 448.568 1491.76 452.439 1486.62 454.579C1465.85 463.236 1439.75 451.049 1449.44 425.276C1452.45 417.252 1455.46 414.701 1462.96 411.055Z" fill="#71C3ED"/>
<path d="M1466.19 422.71C1470.57 422.375 1475.4 421.976 1478.17 426.125C1477.92 428.21 1478.24 427.405 1476.44 429.204L1475.23 429.221C1471.93 429.26 1465.67 429.834 1463.49 427.707C1463.58 424.883 1463.91 425.4 1466.19 422.71Z" fill="white"/>
<path d="M806.046 411.089C826.983 409.508 835.797 416.457 835.44 438.022C828.826 437.993 812.897 437.404 807.348 438.507C806.549 440.465 806.691 439.734 807.503 442.093C812.136 446.241 823.791 444.767 830.474 444.606C833.301 447.343 833.739 447.876 832.789 451.579C824.123 461.521 798.67 458.723 793.05 445.467C786.87 430.892 791.832 417.814 806.046 411.089Z" fill="#71C3ED"/>
<path d="M809.256 422.703C813.371 422.48 818.729 422.042 821.236 426.055C820.897 428.698 821.27 427.776 819.158 429.78C814.902 429.828 809.541 430.449 806.391 427.8C806.591 424.863 806.883 425.43 809.256 422.703Z" fill="white"/>
<path d="M1656.08 411.01C1657.56 410.903 1659.04 410.834 1660.52 410.8C1679.01 410.44 1683.96 421.619 1683.83 437.9C1676.34 437.95 1662.42 436.993 1656.18 440.434L1655.96 441.707C1661.97 445.755 1674.73 444.901 1682.27 445.023L1682.83 449.79C1681.44 452.906 1680.14 454.352 1676.74 455.541C1653.94 463.502 1631.42 447.943 1641.89 423.023C1644.71 416.322 1649.58 413.467 1656.08 411.01Z" fill="#71C3ED"/>
<path d="M1658.99 422.625C1663.43 422.54 1667.32 422.605 1670.3 426.468L1670.08 427.992L1667.72 429.125C1663.24 429.361 1658.09 430.16 1654.71 427.3C1655.87 424.191 1655.86 424.924 1658.99 422.625Z" fill="white"/>
<path d="M1337.69 411.079C1358.68 409.545 1366.67 416.76 1366.71 437.859C1360.6 438.131 1342.24 437.18 1338.34 438.835C1338.03 441.4 1337.94 440.467 1339.49 442.921C1345.26 446.329 1356.4 444.557 1363.82 444.447C1365.89 447.454 1366.2 448.666 1365.23 452.069C1352.05 466.196 1311.45 452.446 1323.85 426.159C1328.02 417.309 1328.41 415.652 1337.69 411.079Z" fill="#71C3ED"/>
<path d="M1340.87 422.683C1345.52 422.27 1349.81 421.83 1352.7 425.993C1351.63 428.725 1352.14 427.841 1349.66 429.706C1345.45 429.73 1340.77 430.362 1337.84 427.552C1338.29 424.684 1338.55 425.211 1340.87 422.683Z" fill="white"/>
<path d="M1104.75 411.363C1112.59 410.917 1114.07 409.009 1117.33 415.802C1119.88 414.442 1124.64 410.94 1127.23 410.773C1149.35 409.35 1144.93 440.809 1144.94 456.257L1129.41 456.062L1129.39 440.427C1129.54 433.588 1130.41 421.203 1119.4 427.411C1115.18 429.792 1116.79 452.524 1116.87 456.912L1101.38 456.847C1101.35 449.746 1100.75 416.976 1102.3 412.205L1104.75 411.363Z" fill="#71C3ED"/>
<path d="M904.034 411.042C925 409.441 932.138 417.652 932.066 437.977C925.991 437.934 910.109 437.274 905.151 438.426L904.484 439.941L905.638 442.861C909.73 446.101 922.611 444.691 928.253 444.485C930.254 447.413 930.714 448.811 929.669 452.154C923.756 458.737 910.506 458.068 902.736 455.479C880.844 448.189 884.985 419.481 904.034 411.042Z" fill="#71C3ED"/>
<path d="M910.298 421.81C914.508 422.644 917.473 423.28 918.312 427.92C916.022 430.31 916.491 429.585 912.399 430.055C911.921 430.051 911.452 430.045 910.974 430.035C906.936 429.948 906.341 430.077 903.809 427.436L903.971 425.603C906.125 423.118 907.135 422.922 910.298 421.81Z" fill="white"/>
<path d="M938.251 411.71C942.452 411.537 948.572 410.993 952.439 412.023L954.016 414.907C957.676 415.665 960.686 411.279 965.518 411.218C986.384 410.953 981.778 441.314 981.643 456.036L966.302 456.085L966.311 442.979C966.383 440.07 967.176 428.955 964.905 427.651C949.212 418.608 953.538 450.177 953.592 456.814L937.773 456.826C938.35 441.628 938.287 426.913 938.251 411.71Z" fill="#71C3ED"/>
<path d="M1756.96 411.187L1773.1 411.887C1763.5 432.686 1755.01 455.423 1745.16 476.922L1730.53 476.995C1732.9 472.479 1735.73 465.358 1737.82 460.522C1738.68 458.804 1740.44 455.084 1740.15 453.267C1737.93 439.347 1728.44 425.495 1724.33 411.861L1739.77 411.857C1743.01 420.123 1745.43 428.076 1748.94 436.538C1753.18 428.071 1754.52 420.34 1756.96 411.187Z" fill="#71C3ED"/>
<path d="M871.441 411.078C876.24 411.035 881.975 411.384 886.846 411.555C882.514 426.69 876.936 441.441 870.171 455.656L854.377 455.909C852.097 447.803 850.394 443.282 847.231 435.579C843.979 428.129 841.483 419.682 838.98 411.906L854.768 411.748C856.206 417.387 859.444 432.09 862.183 436.35L863.598 436.538C866.43 432.896 870.107 416.324 871.441 411.078Z" fill="#71C3ED"/>
<path d="M1621.05 411.589L1637.6 411.894C1635.67 416.56 1633.75 422.119 1631.94 426.911C1628.16 436.676 1624.28 446.476 1619.84 455.96C1614.67 455.871 1610.35 456.318 1605.21 456.796C1600.1 441.696 1594 426.885 1589.16 411.785L1604.59 411.917C1607.43 421.078 1610.15 430.274 1612.76 439.5C1616.7 430.465 1618.72 421.129 1621.05 411.589Z" fill="#71C3ED"/>
<path d="M1207.43 411.004C1214.66 410.467 1221.76 410.725 1227.66 415.679C1229.25 418.867 1229 417.554 1228.84 421.086C1223.21 428.688 1209.23 422.186 1205 430.756C1204.4 434.398 1205.67 437.462 1207.7 440.496C1212.63 447.879 1218.62 440.493 1226.87 442.172C1229.68 444.202 1229.18 444.74 1230.45 448.446C1230.28 448.928 1230.1 449.403 1229.91 449.871C1226.46 457.858 1209.95 458.385 1202.69 455.11C1197.48 452.746 1193.45 448.38 1191.52 443.003C1186.23 428.756 1193.4 415.95 1207.43 411.004Z" fill="#71C3ED"/>
<path d="M1515.86 410.987C1517.42 410.9 1518.97 410.855 1520.51 410.851C1526.22 410.827 1532.08 412.21 1536.25 416.337C1537.2 418.929 1537.29 419.269 1536.68 421.947C1531.31 427.85 1523.18 422.262 1514.84 427.153C1511.72 431.422 1512.55 436.7 1515.61 440.867C1519.67 446.393 1528.29 441.087 1535.15 442.14C1538.08 444.14 1537.52 444.578 1538.85 448.38C1532.73 457.887 1520.1 459.873 1510.34 454.811C1504.74 451.969 1500.54 446.959 1498.72 440.944C1494.34 426.569 1501.79 414.975 1515.86 410.987Z" fill="#71C3ED"/>
<path d="M994.794 401.133L1009.31 401.066C1009.19 403.86 1008.91 406.877 1008.71 409.686C1009.88 411.697 1009.77 411.279 1012.37 411.457C1017.72 411.828 1021.67 416.625 1018.72 421.727C1016.99 424.724 1012.71 424.758 1009.38 425.381C1009.24 435.244 1009.48 445.668 1009.54 455.578L994.533 455.601C994.352 448.957 996.209 428.336 993.063 424.353C991.08 423.954 990.449 423.77 988.566 423.04C986.357 420.654 986.186 416.086 985.699 412.689C988.593 412.472 991.315 412.489 993.884 411.144C995.713 408.876 994.947 404.286 994.794 401.133Z" fill="#71C3ED"/>
<path d="M1123.09 165.224C1126.4 165.221 1129.9 165.172 1133.19 165.331C1138.49 165.586 1135.16 167.465 1138.27 171.158C1143.54 170.948 1146.86 163.681 1152.99 164.203C1156.09 167.789 1154.42 174.605 1153.83 179.132C1146.98 179.995 1141.29 180.133 1138.34 187.348L1138.22 212.751L1123.01 212.733L1123.09 165.224Z" fill="#045E8F"/>
<path d="M1413.42 411.391C1420.53 410.94 1424.9 409.175 1427.32 416.7C1431.09 416.674 1434.27 411.062 1440.23 409.577C1445.9 411.196 1443.77 420.21 1443.26 424.767C1436.73 426.182 1428.47 426.337 1426.9 434.12L1426.97 456.108C1422.09 456.141 1416.7 456.463 1411.77 456.652C1412.12 444.673 1410.79 422.489 1411.93 412.378L1413.42 411.391Z" fill="#71C3ED"/>
<path d="M1202.39 278.826C1207.4 278.929 1211.61 278.905 1216.55 279.771C1217.45 281.344 1217.72 282.336 1218.27 284.021C1226.13 279.244 1225.46 278.956 1234.78 279.266C1234.24 283.615 1233.27 287.869 1232.36 292.157C1224.07 292.928 1221.93 292.741 1217.78 300.236C1218 308.246 1217.8 316.421 1217.7 324.444L1202.58 324.559C1202.28 309.318 1202.21 294.071 1202.39 278.826Z" fill="#045E8F"/>
<path d="M783.285 410.873C785.225 410.947 785.67 410.914 787.496 411.731C789.18 415.048 787.906 420.689 787.497 424.806C766.195 427.517 772.163 439.209 771.659 456.466L756.246 456.691C756.508 441.686 756.416 426.354 756.464 411.322C761.078 411.337 766.524 411.168 770.974 412.004C771.965 413.691 772.33 415.665 772.811 417.575C775.763 417.457 777.073 413.275 783.004 410.978L783.285 410.873Z" fill="#71C3ED"/>
<path d="M1689.26 411.74C1694.01 411.586 1699.62 411.22 1704.23 411.919C1705.13 413.743 1705.22 414.483 1705.59 416.409C1709.94 416.284 1714.1 410.808 1719.53 410.933C1722.59 414.001 1720.84 421.862 1720.3 426.006C1713.31 426.604 1707.63 425.608 1705.07 432.761C1704.52 438.905 1704.81 449.784 1704.82 456.315L1689.74 456.418C1689.76 441.617 1689.96 426.503 1689.26 411.74Z" fill="#71C3ED"/>
<path d="M1287.5 411.675C1295.62 412.005 1300.27 408.529 1304.71 416.14C1308.98 417.713 1314.83 407.623 1319.3 411.996C1320.14 417.194 1318.86 419.809 1317.46 424.963C1309.73 426.332 1303.68 426.016 1303.18 435.198L1303.3 456.054C1298.17 456.109 1292.71 456.398 1287.56 456.584C1287.67 441.614 1287.66 426.645 1287.5 411.675Z" fill="#71C3ED"/>
<path d="M1738.84 166.635L1755.24 166.607C1754.78 181.774 1754.97 197.473 1754.96 212.682L1739.25 212.604C1739.44 197.28 1739.3 181.954 1738.84 166.635Z" fill="#045E8F"/>
<path d="M1037.06 411.367L1039.33 411.613C1041.57 415.744 1040.52 448.801 1040.46 455.591C1038.08 455.856 1031.8 455.769 1029.14 455.806L1026.53 455.447C1024.08 451.309 1025.83 418.026 1026.49 411.652L1037.06 411.367Z" fill="#71C3ED"/>
<path d="M1296.55 309.186C1299.55 308.053 1302.94 308.66 1305.37 310.765C1307.79 312.87 1308.87 316.135 1308.16 319.27C1307.47 322.404 1305.11 324.903 1302.02 325.778C1297.51 327.054 1292.79 324.551 1291.33 320.101C1289.87 315.652 1292.16 310.838 1296.55 309.186Z" fill="#045E8F"/>
<path d="M1214.54 196.065C1218.98 195.232 1223.33 197.954 1224.52 202.322C1225.71 206.69 1223.34 211.239 1219.08 212.776C1216.01 213.887 1212.56 213.175 1210.18 210.935C1207.8 208.694 1206.88 205.304 1207.8 202.164C1208.72 199.025 1211.32 196.667 1214.54 196.065Z" fill="#045E8F"/>
<path d="M1767.5 196.906C1770.39 195.623 1773.75 196.017 1776.27 197.937C1778.78 199.855 1780.05 202.993 1779.57 206.119C1779.09 209.246 1776.95 211.862 1773.97 212.943C1769.59 214.538 1764.73 212.375 1762.99 208.051C1761.24 203.728 1763.24 198.799 1767.5 196.906Z" fill="#045E8F"/>
<path d="M1744.75 142.706C1749.24 141.249 1754.06 143.714 1755.5 148.206C1756.94 152.697 1754.47 157.506 1749.97 158.935C1745.49 160.357 1740.7 157.891 1739.27 153.419C1737.83 148.947 1740.28 144.156 1744.75 142.706Z" fill="#045E8F"/>
<path d="M1775.57 440.229C1780 439.235 1784.42 441.944 1785.54 446.341C1786.66 450.739 1784.07 455.229 1779.71 456.474C1776.77 457.312 1773.62 456.488 1771.46 454.323C1769.31 452.158 1768.51 448.994 1769.36 446.064C1770.21 443.132 1772.59 440.897 1775.57 440.229Z" fill="#71C3ED"/>
<path d="M1158.68 441.085C1162.68 439.065 1167.55 440.545 1169.74 444.442C1171.94 448.339 1170.67 453.273 1166.88 455.634C1164.26 457.255 1160.97 457.315 1158.31 455.787C1155.64 454.261 1154.03 451.394 1154.11 448.324C1154.18 445.253 1155.94 442.474 1158.68 441.085Z" fill="#71C3ED"/>
<path d="M1380 440.995L1381.09 440.957C1394.17 440.545 1395.67 448.58 1387.03 456.88C1374.65 457.026 1372.03 445.434 1380 440.995Z" fill="#71C3ED"/>
<path d="M1029.67 389.662C1033.59 387.953 1038.17 389.696 1039.96 393.585C1041.76 397.474 1040.11 402.084 1036.26 403.959C1033.69 405.208 1030.65 404.972 1028.31 403.342C1025.96 401.712 1024.69 398.943 1024.97 396.104C1025.25 393.265 1027.04 390.801 1029.67 389.662Z" fill="#71C3ED"/>
</g>
<defs>
<clipPath id="clip0_4225_309120">
<rect width="1846" height="638" fill="white"/>
</clipPath>
</defs>
</svg>
