<svg width="1176" height="264" viewBox="0 0 1176 264" fill="none" xmlns="http://www.w3.org/2000/svg">
<path d="M473.915 45.6135C512.492 45.2719 588.489 36.5872 573.469 104.275C571.248 114.287 561.418 121.599 552.586 125.976C570.416 131.525 581.375 142.829 581.983 162.26C582.402 175.688 578.9 185.721 569.663 195.546C553.229 210.653 528.78 212.785 507.583 211.629C497.781 211.095 464.39 213.404 457.031 211.055C455.382 206.228 455.964 162.481 455.958 153.652L456.002 45.9075C460.774 45.3959 468.873 45.6141 473.915 45.6135ZM487.021 184.749C501.791 184.388 519.41 185.54 533.844 183.701C536.856 183.317 541.205 180.642 543.504 178.555C551.805 168.719 553.319 155.065 542.795 146.179C539.903 143.777 536.465 142.125 532.784 141.367C526.189 139.963 496.204 140.848 487.092 140.665C487.084 155.175 487.299 170.29 487.021 184.749ZM487.015 114.112C500.517 114.067 528.631 117.038 538.394 108.117C546.954 98.3072 547.248 86.382 537.385 77.3747C533.237 73.587 526.782 72.4587 521.391 72.3709C509.983 72.1849 498.474 72.8164 487.08 72.3812C487.08 86.1403 487.272 100.393 487.015 114.112Z" fill="black"/>
<path d="M654.28 87.4318C670.76 85.6784 684.714 91.08 696.393 102.495C697.174 97.7913 697.927 93.5047 698.937 88.8443C704.524 88.2845 718.937 88.4079 724.559 88.8276C725.041 95.4959 724.812 105.236 724.817 112.119L724.869 151.815L724.972 188.095C724.995 195.293 725.277 204.263 724.576 211.276C716.049 211.371 707.177 211.605 698.685 211.281L696.365 196.878C694.51 198.785 692.408 200.628 690.427 202.425C683.186 207.865 676.818 210.991 667.82 212.197C633.528 216.718 605.833 195.53 601.848 160.892C597.576 123.774 614.751 92.3305 654.28 87.4318ZM666.477 187.07C670.806 186.39 674.137 185.838 678.099 183.765C700.602 171.988 701.188 132.788 681.2 118.464C676.141 114.837 668.079 112.602 661.889 113.296C639.236 115.333 629.623 133.94 631.742 155.349C633.712 175.289 645.977 187.675 666.477 187.07Z" fill="black"/>
<path d="M154.715 145.92C156.351 145.864 157.987 145.828 159.623 145.814L277.773 145.77L312.322 145.775C318.562 145.777 328.37 145.503 334.229 146.425C338.58 147.15 342.588 149.242 345.67 152.399C349.78 156.637 352.018 162.346 351.884 168.248C351.769 175.262 348.997 180.178 344.16 184.953C334.325 192.322 321.161 190.086 309.18 190.085L266.263 190.098C231.192 190.109 196.017 190.181 160.94 190.027C159.764 189.949 154.262 189.872 153.786 189.064C150.677 183.794 152.486 173.572 152.242 167.713C151.996 161.8 152.021 158.199 152.035 152.627C152.044 149.242 152.435 147.957 154.715 145.92Z" fill="black"/>
<path d="M154.14 67.1443C155.7 67.0013 158.351 66.9267 159.963 66.9221C198.082 66.8078 236.281 66.8394 274.392 66.8428L312.246 66.8537C318.037 66.8566 329.361 66.2038 334.582 67.4084C353.958 71.8782 357.525 93.014 344.396 105.966C333.695 113.217 322.741 111.09 310.159 111.096L268.359 111.087L199.079 111.116C193.361 111.118 156.365 111.947 153.292 109.581C152.575 107.72 151.884 103.436 152.094 101.582C152.854 94.9012 150.219 71.8506 154.14 67.1443Z" fill="black"/>
<path d="M789.309 87.4108C810.848 85.4857 836.963 89.8303 848.04 111.099C849.946 114.757 852.817 124.364 851.468 128.318C848.89 130.291 828.063 129.527 823.704 129.358C822.47 123.878 821.321 119.972 816.699 116.214C807.615 108.83 787.689 108.914 779.874 118.184C775.114 123.65 777.405 130.695 784.279 132.54C808.321 138.911 849.734 134.068 853.822 167.837C857.336 196.899 833.771 209.457 809.022 212.379C784.083 213.439 752.903 207.259 747.247 177.434C746.742 174.765 746.001 170.954 747.207 168.523C749.929 166.776 769.78 167.604 774.431 167.651C775.728 173.994 776.176 176.672 781.763 182.249C791.387 191.851 826.174 191.934 825.134 173.194C824.635 164.138 806.954 162.795 798.979 161.769C780.552 159.4 752.645 155.918 749.228 132.879C747.741 123.373 749.257 113.519 755.2 105.479C763.635 94.0676 775.763 89.6242 789.309 87.4108Z" fill="black"/>
<path d="M973.587 86.9046C1001.94 84.5752 1030.21 97.1033 1031.58 129.022C1023.5 129.535 1011.45 129.255 1003.27 129.101C1002.13 124.106 1001.29 120.956 997.492 117.198C988.632 108.429 968.97 108.54 960.053 117.111C958.359 118.737 956.338 122.418 956.699 124.636C958.112 134.236 974.787 134.605 982.488 135.53C1004.09 138.126 1032.01 142.156 1033.53 169.566C1034.09 179.648 1032.27 188.022 1025.15 196.031C1014.05 208.503 999.461 211.424 983.561 212.412C953.788 212.61 926.823 201.457 925.984 167.722C933.202 167.063 946.679 167.434 954.081 167.579C956.86 182.932 966.203 187.865 981.523 188.395C990.372 188.7 1005.16 185.182 1004.72 173.776C1004.34 164.179 989.476 163.003 982.447 162.076C960.885 159.179 930.067 156.787 928.253 128.847C926.846 107.063 942.51 92.7902 962.585 88.3348C966.444 87.4781 969.608 87.156 973.587 86.9046Z" fill="black"/>
<path d="M876.172 88.4627C884.47 88.07 896.62 88.2348 904.935 88.519C905.412 95.0948 905.142 105.374 905.148 112.172L905.211 155.41L905.343 189.723C905.36 195.453 905.641 205.828 904.717 211.125C896.046 211.381 884.493 211.452 875.937 211.009C875.46 203.994 875.696 194.811 875.69 187.601L875.65 146.446C875.644 138.344 874.553 93.7714 876.172 88.4627Z" fill="black"/>
<path d="M886.205 41.4775C895.564 39.2412 904.976 44.9431 907.324 54.2691C909.673 63.5951 904.086 73.0756 894.789 75.537C888.674 77.1555 882.156 75.3613 877.735 70.8398C873.313 66.3184 871.66 59.7678 873.417 53.6904C875.168 47.6135 880.055 42.9485 886.205 41.4775Z" fill="black"/>
</svg>
