<svg width="1106" height="172" viewBox="0 0 1106 172" fill="none" xmlns="http://www.w3.org/2000/svg">
<path d="M882.786 10.7509C883.812 10.4911 887.501 10.5662 888.873 10.5111C900.748 10.0342 912.699 13.2799 923.322 18.6759C940.776 27.518 953.936 43.0144 959.828 61.6706C964.111 74.8357 964.321 93.4184 960.039 106.691C958.316 112.032 955.681 117.051 953.132 122.058C957.868 127.204 971.644 141.899 976.586 145.587C968.307 154.278 958.916 163.362 950.399 171.924C943.741 164.946 936.979 158.059 930.132 151.268C926.162 147.16 926.913 148.711 921.81 150.789C919.153 151.873 916.199 153.594 913.569 154.458C840.075 178.592 783.435 92.4188 834.015 34.2588C845.448 21.112 866.537 11.5393 882.786 10.7509ZM893.312 122.821C914.535 120.494 929.867 101.421 927.583 80.1912C925.293 58.9623 906.246 43.5949 885.011 45.8458C863.723 48.1021 848.31 67.2071 850.605 88.4906C852.901 109.774 872.034 125.154 893.312 122.821Z" fill="#6F8CC7"/>
<path d="M670.361 12.1367L712.856 12.1783L712.84 157.137C699.512 157.093 686.189 157.166 672.861 157.354L672.883 115.011L672.888 74.8023C671.317 76.8561 669.486 79.7474 668.157 81.9854C658.302 98.584 646.07 114.478 636.236 130.99C632.839 127.623 625.408 115.805 622.297 110.992C614.737 99.3006 606.35 87.1773 599.227 75.297C599.751 101.958 599.124 130.332 599.286 157.216L559.086 157.144L559.059 12.1929C573.353 12.1092 587.648 12.1205 601.938 12.2258C613.613 29.8851 624.943 50.9277 636.7 67.8439C638.434 62.6952 647.166 49.448 650.601 43.9618C657.27 33.4045 663.859 22.796 670.361 12.1367Z" fill="#2C3D42"/>
<path d="M410.989 12.2205C422.393 11.782 434.814 12.0952 446.342 12.1832C466.1 12.3339 484.365 10.4886 503.729 15.2112C533.019 22.3549 545.12 48.8173 537.611 76.868C533.496 92.1771 524.119 99.3493 510.677 106.771C512.94 111.359 518.151 117.914 521.215 122.472C528.966 134.005 537.114 145.377 544.612 157.08C539.631 157.32 533.663 157.187 528.607 157.205C518.964 157.218 507.337 157.523 497.855 156.989C488.477 142.914 478.649 127.253 468.879 113.613C463.261 113.538 457.491 113.594 451.861 113.59L451.957 157.206C439.249 156.583 424.293 157.516 410.961 157.02L410.989 12.2205ZM451.966 81.8126C466.928 81.8855 481.289 83.942 494.062 76.4381C502.186 67.554 499.75 51.5337 487.791 48.6024C477.346 46.0421 462.796 47.2064 451.831 47.194L451.966 81.8126Z" fill="#2C3D42"/>
<path d="M297.493 10.9972C310.215 10.8557 323.185 10.9912 335.925 11.0144C342.516 23.9608 349.85 43.6349 355.801 57.2504C370.126 90.0259 383.484 124.6 398.036 157.193C387.054 157.206 364.17 157.85 354.177 156.865C350.958 148.111 347.126 139.577 343.79 130.879L337.659 130.872L288.651 130.858C285.126 139.68 282.044 148.464 278.101 157.123C264.409 157.477 249.388 157.243 235.633 157.158C244.554 135.293 253.921 113.555 263.182 91.8226C274.564 65.1155 285.497 37.3613 297.493 10.9972ZM300.514 99.3907C306.052 99.185 311.595 99.1132 317.138 99.1769L332.002 99.2093C330.06 94.7631 317.546 61.0572 316.205 60.0219C311.162 72.2981 305.982 87.6119 300.514 99.3907Z" fill="#2C3D42"/>
<path d="M130.168 12.1523L246.216 12.1934C246.074 23.9398 246.063 35.6878 246.183 47.4347C221.352 48.0649 195.697 47.0248 170.671 47.6324C170.68 55.531 170.764 63.4301 170.925 71.3271C192.265 70.7325 217.808 70.8535 239.203 71.2823L239.16 80.989L239.209 105.759L170.722 105.678C170.715 122.492 170.412 140.451 170.954 157.168C158.306 156.762 143.05 157.21 130.19 157.238L130.168 12.1523Z" fill="#2C3D42"/>
<path d="M803.768 11.9297C803.908 11.9318 804.394 12.2969 804.551 12.4001C805.021 21.7541 804.616 34.641 804.616 44.2667C793.34 43.8055 789.349 49.0693 789.457 59.7723C789.721 72.2207 788.981 84.8749 789.419 97.3039C789.921 111.619 785.817 124.248 804.632 124.562L804.61 157.386L734.924 157.404L734.416 157.318C733.39 155.886 733.692 128.873 733.654 124.629C734.065 124.627 734.475 124.62 734.886 124.608C742.614 124.366 748.506 121.562 748.754 113.169C749.31 94.5659 748.894 75.9184 748.927 57.307C748.943 47.3001 743.478 43.7931 733.784 44.4411L733.762 12.0372C756.498 12.2321 781.118 12.4546 803.768 11.9297Z" fill="#6F8CC7"/>
<path d="M961.327 6.97068C967.457 5.21177 973.846 8.7755 975.574 14.9141C977.296 21.0522 973.7 27.422 967.549 29.1128C961.452 30.7902 955.139 27.2254 953.432 21.1348C951.72 15.0443 955.247 8.71555 961.327 6.97068ZM964.773 26.9743C969.606 26.7788 973.381 22.7258 973.23 17.8903C973.079 13.0548 969.061 9.24264 964.227 9.34687C959.324 9.45217 955.452 13.5354 955.603 18.4363C955.754 23.3366 959.875 27.1725 964.773 26.9743Z" fill="#2C3D42"/>
<path d="M959.6 12.1922C976.32 11.8142 965.762 14.7407 969.64 22.9984L969.872 23.4936C969.1 24.4165 967.652 24.3237 966.146 24.5651C965.336 22.8537 965.13 22.3584 963.937 20.8528L963.257 21.0321L963.122 23.5141L962.236 24.2389C960.173 24.3188 960.767 24.5807 959.449 23.6286C959.93 20.8339 959.665 15.2602 959.6 12.1922Z" fill="#2C3D42"/>
</svg>
