<svg width="2021" height="868" viewBox="0 0 2021 868" fill="none" xmlns="http://www.w3.org/2000/svg">
<path d="M1776.15 284.535C1855.62 278.27 1925.14 337.582 1931.49 417.072C1937.86 496.562 1878.65 566.183 1799.2 572.643C1719.61 579.115 1649.87 519.762 1643.49 440.134C1637.12 360.505 1696.53 290.811 1776.15 284.535ZM1797.2 536.945C1856.97 531.567 1901.05 478.73 1895.65 418.945C1890.26 359.16 1837.42 315.079 1777.66 320.5C1717.93 325.918 1673.89 378.738 1679.28 438.494C1684.68 498.248 1737.47 542.321 1797.2 536.945Z" fill="black"/>
<path d="M1779.2 355.036C1819.49 350.329 1855.91 379.316 1860.4 419.649C1864.88 459.983 1835.7 496.263 1795.35 500.521C1755.33 504.745 1719.41 475.835 1714.97 435.818C1710.52 395.801 1739.21 359.707 1779.2 355.036Z" fill="black"/>
<path d="M586.103 300.803C589.036 299.959 592.558 300.082 595.57 300.015C650.472 298.728 693.508 336.851 704.232 389.877C706.527 401.222 710.223 425.269 707.091 436.344C702.817 443.323 662.896 440.983 653.453 440.976L562.036 440.783C555.193 440.753 529.39 439.736 524.515 442.46C523.826 443.541 523.121 445.178 523.282 446.441C528.151 486.281 560.249 522.091 601.848 522.977C621.988 523.406 641.854 508.051 655.116 494.473C657.877 491.761 659.851 488.508 663.812 484.788C670.754 483.014 689.282 498.353 691.801 504.641C691.661 509.125 688.231 512.312 685.611 515.579C665.567 540.562 640.544 557.072 608.029 559.616C581.102 561.723 554.446 554.555 533.897 536.377C504.753 510.598 488.428 479.287 485.774 440.422C483.11 401.439 491.343 367.393 517.02 337.24C534.821 316.338 558.654 302.881 586.103 300.803ZM601.465 405.059C610.87 405.102 663.833 406.912 668.525 402.764C670.305 399.811 670.091 396.897 669.172 393.649C660.536 363.158 628.637 331.415 594.561 335.275C572.078 338.645 555.43 346.927 541.864 365.671C537.181 372.14 522.201 396.199 525.386 403.469C531.435 406.381 590.307 405.108 601.465 405.059Z" fill="black"/>
<path d="M293.794 332.797C305.551 317.466 315.687 308.167 334.788 302.334C357.013 295.547 387.758 297.205 408.38 308.359C427.272 318.756 441.277 336.215 447.332 356.916C448.778 361.858 450.622 370.038 450.675 375.179C451.254 430.484 451.153 485.865 450.803 541.173C450.781 544.814 449.825 551.197 448.148 554.28C443.228 556.72 440.227 556.963 434.742 556.867C411.914 556.471 417.115 539.68 417.156 522.301L417.301 430.086C417.315 416.424 418.184 387.129 415.644 375.458C413.441 365.701 408.668 356.711 401.823 349.421C380.752 326.983 348.55 328.462 327.216 349.441C308.235 368.107 310.694 393.625 310.747 418.016L310.853 461.781C310.914 489.568 311.069 517.469 310.825 545.256C310.788 549.626 310.807 551.659 307.493 554.792C300.46 556.455 287.98 557.499 281.498 554.135C278.702 552.683 277.823 549.283 277.372 546.391C275.883 536.837 277.21 525.669 277.208 515.91C277.2 488.365 280.342 390.069 273.094 369.441C268.213 355.544 257.163 344.472 243.945 338.289C231.582 332.507 218.533 331.149 205.535 335.949C191.739 341.044 179.85 351.79 174.575 365.665C167.712 383.713 170.718 427.891 170.745 448.434L170.732 522.115C170.734 529.999 172.133 547.604 169.308 553.709C165.095 557.7 143.126 556.907 138.258 552.737C135.693 550.54 135.065 543.226 135.058 540.063C134.972 501.445 135.367 462.83 135.081 424.21C134.977 404.113 134.261 382.21 138.903 362.631C142.192 348.251 149.103 334.952 158.978 323.997C173.592 307.957 192.077 299.989 213.553 298.923C220.985 297.646 232.772 298.299 240.276 299.554C264.914 303.671 279.339 313.1 293.794 332.797Z" fill="black"/>
<path d="M1306.72 217.326C1313.87 217.152 1330.85 215.826 1336.3 219.267C1339.54 226.191 1338.08 401.97 1338.07 423.383C1344.34 413.635 1371.08 381.684 1379.56 371.719C1396.47 351.826 1417.97 322.611 1435.3 304.145C1442.73 304.137 1473.32 302.932 1477.79 306.004C1476.89 316.958 1390.21 407.748 1381.26 429.846C1381.61 433.611 1436.15 495.893 1442.99 503.8C1453.12 515.99 1473.57 536.863 1482.1 550.962C1482.11 552.289 1482.12 553.414 1482.13 554.337C1476.78 557.227 1448.77 556.016 1440.59 555.923C1432.18 548.189 1420.85 534.11 1413.03 524.948L1368.25 472.671C1358.92 461.705 1348.1 448.155 1338.05 438.305C1338.07 455.678 1340.2 542.996 1336.43 553.216C1335.98 554.417 1335.92 554.521 1334.73 554.993C1329.5 557.048 1311.44 557.08 1306.24 554.696C1302.72 550.381 1304.12 513.297 1304.12 505.633V414.577L1304.14 289.073C1304.15 267.57 1304.04 245.793 1304.31 224.274C1304.35 221.274 1304.8 219.622 1306.72 217.326Z" fill="black"/>
<path d="M1156.39 298.849C1159.71 297.585 1171.2 298.072 1175.09 298.328C1218.35 301.188 1252.65 333.919 1260.19 376.344C1265.69 407.205 1262.16 442.214 1262.93 473.838C1263.49 497.249 1262.93 521.918 1263.03 545.42C1263.03 547.311 1261.5 554.068 1259.33 554.527C1222.12 562.401 1229.2 544.715 1229.13 517.532L1229.18 441.579C1229.2 426.293 1230.24 408.489 1227.76 393.635C1222.81 363.978 1206.93 341.145 1177.08 334.273C1167.23 331.441 1151.6 332.918 1142.43 337.382C1095.39 360.275 1101.93 404.629 1101.97 446.773L1102.09 521.783C1102.09 527.781 1102.72 545.287 1101.2 550.566C1098.85 558.755 1078.44 556.802 1071.77 553.681C1066.92 549.379 1067.74 538.472 1067.75 532.258C1067.78 515.108 1068.02 497.955 1068.03 480.804L1067.9 422.46C1067.86 406.837 1066.95 387.821 1070.25 372.905C1073.96 356.738 1081.61 341.741 1092.53 329.257C1109.41 310.019 1131.08 300.524 1156.39 298.849Z" fill="black"/>
<path d="M764.967 215.566C771.286 214.86 778.655 214.67 784.973 215.47C788.453 215.911 792.112 216.739 794.231 219.78C803.384 232.917 790.76 291.657 799.54 302.357C804.228 308.068 828.757 302.681 836.487 303.627C839.662 304.015 842.843 305.217 844.769 307.911C848.581 313.241 847.53 322.624 846.345 328.759C842.782 347.217 812.477 331.825 801.527 340.31C798.418 342.72 797.649 346.825 797.166 350.507C795.246 365.182 796.92 381.751 796.956 396.634L796.984 495.501C796.987 512.322 797.297 529.822 796.68 546.621C796.508 551.293 795.573 552.986 792.122 555.84C786.401 555.998 763.631 557.679 762.292 549.925C760.103 537.251 760.985 521.17 760.985 508.115L760.989 399.258C760.992 388.812 762.567 346.019 758.797 340.002C750.511 333.339 721.064 342.565 711.843 335.696C708.627 333.302 710.197 309.084 710.31 304.428C723.422 303.59 736.608 304.815 749.731 304.341C752.949 304.225 756.904 304.058 759.007 301.266C765.822 292.224 756.456 233.976 761.754 219.92C762.373 218.279 763.782 216.828 764.967 215.566Z" fill="black"/>
<path d="M1621.06 547.501C1633.4 544.226 1653.85 550.487 1664.32 557.618C1678.33 567.21 1687.96 581.973 1691.11 598.665C1698.8 641.146 1678.43 674.851 1635.33 682.794C1621.4 684.371 1600.67 679.248 1589.84 670.26C1545.55 633.499 1559.68 555.418 1621.06 547.501Z" fill="black"/>
<path d="M1625.83 180.409C1631.12 179.24 1640.8 181.309 1645.95 182.69C1701.57 197.608 1709.02 278.61 1661.23 307.11C1651.49 312.917 1645.18 314.203 1634.16 316.072C1545.41 318.815 1538.84 188.321 1625.83 180.409Z" fill="black"/>
<path d="M877.261 217.344C885.432 217.114 896.221 216.016 903.393 219.452C908.823 223.935 906.925 285.547 906.914 296.293L906.929 415.689C906.918 434.413 906.578 453.072 906.889 471.85C907.241 493.063 916.638 517.646 940.577 520.635C945.664 521.27 952.62 521.357 957.12 523.581C961.599 527.627 961.338 551.167 957.435 555.971C934.417 556.583 913.751 554.071 896.409 537.697C877.204 519.562 873.444 498.172 873.284 472.763C872.959 421.305 873.252 369.595 873.192 318.137L873.104 254.883C873.092 244.599 873.018 233.972 873.284 223.668C873.364 220.545 874.934 219.814 877.261 217.344Z" fill="black"/>
<path d="M996.676 313.181C1004.49 313.093 1018.95 311.642 1024.79 315.867C1027.96 321.496 1027.08 348.437 1027.08 356.449L1027.09 415.626L1027.06 502.479C1027.05 517.524 1027.15 532.802 1026.85 547.849C1026.77 552.043 1026.24 552.561 1024.07 555.501C1016.51 556.442 1002.78 557.071 996.163 553.236C991.751 549.13 992.926 517.738 992.916 510.074L992.896 447.71L992.926 363.189C992.936 349.196 992.827 334.93 993.123 320.932C993.172 318.184 995.126 315.443 996.676 313.181Z" fill="black"/>
<path d="M1523.34 97.2395C1532.33 96.0016 1543.56 99.0559 1551 104.219C1559.79 110.33 1565.75 119.729 1567.53 130.289C1571.92 155.249 1559.68 177.402 1533.7 181.885C1522.96 182.309 1514.84 181.998 1505.36 175.779C1486.3 163.285 1482.34 132.51 1495.03 114.303C1501.83 104.551 1511.71 99.2198 1523.34 97.2395Z" fill="black"/>
<path d="M1522.76 679.655C1530.77 677.684 1543.21 681.037 1549.95 685.565C1579.44 705.364 1571.71 757.258 1535.45 763.941C1513.94 769.113 1491.02 751.366 1488.33 730.037C1485.2 705.273 1496.68 683.454 1522.76 679.655Z" fill="black"/>
<path d="M126.238 244.113C141.387 243.69 152.592 248.991 157.268 264.595C159.71 272.599 158.784 281.252 154.705 288.558C150.68 295.615 144.879 299.82 137.208 302.022C129.964 302.257 125.658 302.665 118.928 299.321C112.307 296.112 107.314 290.297 105.142 283.264C99.1714 264.579 108.388 249.979 126.238 244.113ZM110.484 273.702C113.118 284.122 113.906 285.831 121.948 293.528C127.716 294.912 135.251 297.971 138.107 291.215C137.616 285.736 133.666 281.327 130.175 277.307L128.471 277.013C125.813 281.462 127.256 286.881 124.687 290.867L122.911 291.309C116.817 286.379 119.132 268.73 119.384 260.639C120.172 258.417 120.516 258.317 122.4 256.741C131.192 254.647 145.279 253.844 144.444 267.854C144.331 269.748 140.845 275.451 139.714 277.381C141.339 280.346 144.505 284.189 146.656 286.976C159.23 262.014 135.855 240.641 118.018 257.211C112.725 262.998 112.175 266.205 110.484 273.702Z" fill="black"/>
<path d="M118.02 257.212C135.857 240.642 159.232 262.015 146.658 286.977C144.507 284.19 141.341 280.347 139.716 277.382C140.847 275.452 144.333 269.749 144.445 267.854C145.281 253.845 131.194 254.648 122.402 256.742C120.518 258.318 120.174 258.418 119.386 260.64L118.02 257.212Z" fill="black" fill-opacity="0.0117647"/>
<path d="M1002.69 237.218C1006.99 237.085 1014.12 236.565 1017.92 238.097C1041.17 247.495 1040.35 278.311 1017.53 287.808C1013.78 287.994 1006.37 288.51 1003.18 287.171C978.728 276.903 980.502 248.562 1002.69 237.218Z" fill="black"/>
</svg>
